<mxfile host="Electron" agent="Mozilla/5.0 (Windows NT 10.0; Win64; x64) AppleWebKit/537.36 (KHTML, like Gecko) draw.io/26.1.1 Chrome/132.0.6834.210 Electron/34.3.3 Safari/537.36" version="26.1.1">
  <diagram name="Page-1" id="IWDHSbMMgDuj47sSt296">
    <mxGraphModel dx="1195" dy="732" grid="0" gridSize="10" guides="1" tooltips="1" connect="1" arrows="1" fold="1" page="0" pageScale="1" pageWidth="1100" pageHeight="1700" math="0" shadow="0">
      <root>
        <mxCell id="0" />
        <mxCell id="1" parent="0" />
        <mxCell id="EsZ2EbYMN0sOzehmeFrr-19" style="edgeStyle=orthogonalEdgeStyle;rounded=0;orthogonalLoop=1;jettySize=auto;html=1;exitX=1;exitY=0.3333333333333333;exitDx=0;exitDy=0;exitPerimeter=0;entryX=0;entryY=0.5;entryDx=0;entryDy=0;" edge="1" parent="1" source="EsZ2EbYMN0sOzehmeFrr-7" target="EsZ2EbYMN0sOzehmeFrr-12">
          <mxGeometry relative="1" as="geometry">
            <Array as="points">
              <mxPoint x="240" y="430" />
              <mxPoint x="240" y="380" />
            </Array>
          </mxGeometry>
        </mxCell>
        <mxCell id="EsZ2EbYMN0sOzehmeFrr-20" style="edgeStyle=orthogonalEdgeStyle;rounded=0;orthogonalLoop=1;jettySize=auto;html=1;exitX=1;exitY=0.3333333333333333;exitDx=0;exitDy=0;exitPerimeter=0;entryX=0;entryY=0.5;entryDx=0;entryDy=0;" edge="1" parent="1" source="EsZ2EbYMN0sOzehmeFrr-7" target="EsZ2EbYMN0sOzehmeFrr-13">
          <mxGeometry relative="1" as="geometry">
            <Array as="points">
              <mxPoint x="240" y="430" />
              <mxPoint x="240" y="480" />
            </Array>
          </mxGeometry>
        </mxCell>
        <mxCell id="EsZ2EbYMN0sOzehmeFrr-7" value="Users" style="shape=umlActor;verticalLabelPosition=bottom;verticalAlign=top;html=1;" vertex="1" parent="1">
          <mxGeometry x="80" y="410" width="30" height="60" as="geometry" />
        </mxCell>
        <mxCell id="EsZ2EbYMN0sOzehmeFrr-12" value="&lt;b&gt;social account&lt;/b&gt;" style="shape=parallelogram;html=1;strokeWidth=2;perimeter=parallelogramPerimeter;whiteSpace=wrap;rounded=1;arcSize=12;size=0.23;" vertex="1" parent="1">
          <mxGeometry x="255" y="350" width="180" height="60" as="geometry" />
        </mxCell>
        <mxCell id="EsZ2EbYMN0sOzehmeFrr-13" value="&lt;b&gt;metamask&lt;/b&gt;" style="shape=parallelogram;html=1;strokeWidth=2;perimeter=parallelogramPerimeter;whiteSpace=wrap;rounded=1;arcSize=12;size=0.23;" vertex="1" parent="1">
          <mxGeometry x="255" y="450" width="170" height="60" as="geometry" />
        </mxCell>
        <mxCell id="EsZ2EbYMN0sOzehmeFrr-21" value="select Login mode" style="text;align=center;fontStyle=1;verticalAlign=middle;spacingLeft=3;spacingRight=3;strokeColor=none;rotatable=0;points=[[0,0.5],[1,0.5]];portConstraint=eastwest;html=1;" vertex="1" parent="1">
          <mxGeometry x="110" y="400" width="110" height="26" as="geometry" />
        </mxCell>
        <mxCell id="EsZ2EbYMN0sOzehmeFrr-30" value="&lt;b&gt;generate the AAWallet&lt;/b&gt;" style="text;html=1;align=center;verticalAlign=middle;resizable=0;points=[];autosize=1;strokeColor=none;fillColor=none;" vertex="1" parent="1">
          <mxGeometry x="580" y="460" width="150" height="30" as="geometry" />
        </mxCell>
        <mxCell id="EsZ2EbYMN0sOzehmeFrr-35" style="edgeStyle=orthogonalEdgeStyle;rounded=0;orthogonalLoop=1;jettySize=auto;html=1;exitX=1;exitY=0.5;exitDx=0;exitDy=0;exitPerimeter=0;entryX=0;entryY=0.5;entryDx=0;entryDy=0;entryPerimeter=0;" edge="1" parent="1" source="EsZ2EbYMN0sOzehmeFrr-22" target="EsZ2EbYMN0sOzehmeFrr-33">
          <mxGeometry relative="1" as="geometry" />
        </mxCell>
        <mxCell id="EsZ2EbYMN0sOzehmeFrr-22" value="" style="strokeWidth=2;html=1;shape=mxgraph.flowchart.multi-document;whiteSpace=wrap;container=0;" vertex="1" parent="1">
          <mxGeometry x="611" y="392" width="88" height="60" as="geometry" />
        </mxCell>
        <mxCell id="EsZ2EbYMN0sOzehmeFrr-23" value="AAWallet&lt;br&gt;Contract Factory" style="text;align=center;fontStyle=1;verticalAlign=middle;spacingLeft=3;spacingRight=3;strokeColor=none;rotatable=0;points=[[0,0.5],[1,0.5]];portConstraint=eastwest;html=1;container=0;" vertex="1" parent="1">
          <mxGeometry x="599" y="352" width="112" height="26" as="geometry" />
        </mxCell>
        <mxCell id="EsZ2EbYMN0sOzehmeFrr-44" style="edgeStyle=orthogonalEdgeStyle;rounded=0;orthogonalLoop=1;jettySize=auto;html=1;exitX=0.5;exitY=1;exitDx=0;exitDy=0;exitPerimeter=0;entryX=0.5;entryY=0;entryDx=0;entryDy=0;" edge="1" parent="1" source="EsZ2EbYMN0sOzehmeFrr-33" target="EsZ2EbYMN0sOzehmeFrr-43">
          <mxGeometry relative="1" as="geometry">
            <Array as="points">
              <mxPoint x="869" y="610" />
            </Array>
          </mxGeometry>
        </mxCell>
        <mxCell id="EsZ2EbYMN0sOzehmeFrr-33" value="&lt;b&gt;&amp;nbsp; &amp;nbsp; DAPP&lt;/b&gt;" style="strokeWidth=2;html=1;shape=mxgraph.flowchart.display;whiteSpace=wrap;" vertex="1" parent="1">
          <mxGeometry x="819" y="392" width="100" height="60" as="geometry" />
        </mxCell>
        <mxCell id="EsZ2EbYMN0sOzehmeFrr-34" value="&lt;b&gt;&lt;font style=&quot;font-size: 15px;&quot;&gt;AudioFi&lt;/font&gt;&lt;/b&gt;" style="text;html=1;align=center;verticalAlign=middle;resizable=0;points=[];autosize=1;strokeColor=none;fillColor=none;" vertex="1" parent="1">
          <mxGeometry x="829" y="350" width="80" height="30" as="geometry" />
        </mxCell>
        <mxCell id="EsZ2EbYMN0sOzehmeFrr-41" style="edgeStyle=orthogonalEdgeStyle;rounded=0;orthogonalLoop=1;jettySize=auto;html=1;exitX=1;exitY=0.5;exitDx=0;exitDy=0;entryX=0;entryY=0.5;entryDx=0;entryDy=0;entryPerimeter=0;" edge="1" parent="1" source="EsZ2EbYMN0sOzehmeFrr-12" target="EsZ2EbYMN0sOzehmeFrr-22">
          <mxGeometry relative="1" as="geometry" />
        </mxCell>
        <mxCell id="EsZ2EbYMN0sOzehmeFrr-42" style="edgeStyle=orthogonalEdgeStyle;rounded=0;orthogonalLoop=1;jettySize=auto;html=1;exitX=1;exitY=0.5;exitDx=0;exitDy=0;entryX=0;entryY=0.5;entryDx=0;entryDy=0;entryPerimeter=0;" edge="1" parent="1" source="EsZ2EbYMN0sOzehmeFrr-13" target="EsZ2EbYMN0sOzehmeFrr-22">
          <mxGeometry relative="1" as="geometry" />
        </mxCell>
        <mxCell id="EsZ2EbYMN0sOzehmeFrr-46" style="edgeStyle=orthogonalEdgeStyle;rounded=0;orthogonalLoop=1;jettySize=auto;html=1;exitX=0;exitY=0.5;exitDx=0;exitDy=0;entryX=1;entryY=0.5;entryDx=0;entryDy=0;" edge="1" parent="1" source="EsZ2EbYMN0sOzehmeFrr-43" target="EsZ2EbYMN0sOzehmeFrr-45">
          <mxGeometry relative="1" as="geometry" />
        </mxCell>
        <mxCell id="EsZ2EbYMN0sOzehmeFrr-43" value="&lt;span style=&quot;font-size: 15px;&quot;&gt;&lt;b&gt;Wallet SDK&lt;/b&gt;&lt;/span&gt;" style="rounded=1;whiteSpace=wrap;html=1;absoluteArcSize=1;arcSize=14;strokeWidth=2;" vertex="1" parent="1">
          <mxGeometry x="789.75" y="620" width="158.5" height="50" as="geometry" />
        </mxCell>
        <mxCell id="EsZ2EbYMN0sOzehmeFrr-48" style="edgeStyle=orthogonalEdgeStyle;rounded=0;orthogonalLoop=1;jettySize=auto;html=1;exitX=0;exitY=0.5;exitDx=0;exitDy=0;entryX=1;entryY=0.5;entryDx=0;entryDy=0;" edge="1" parent="1" source="EsZ2EbYMN0sOzehmeFrr-45" target="EsZ2EbYMN0sOzehmeFrr-47">
          <mxGeometry relative="1" as="geometry" />
        </mxCell>
        <mxCell id="EsZ2EbYMN0sOzehmeFrr-53" style="edgeStyle=orthogonalEdgeStyle;rounded=0;orthogonalLoop=1;jettySize=auto;html=1;exitX=0.5;exitY=1;exitDx=0;exitDy=0;entryX=0.5;entryY=0;entryDx=0;entryDy=0;" edge="1" parent="1" source="EsZ2EbYMN0sOzehmeFrr-45" target="EsZ2EbYMN0sOzehmeFrr-55">
          <mxGeometry relative="1" as="geometry">
            <mxPoint x="610" y="810" as="targetPoint" />
          </mxGeometry>
        </mxCell>
        <mxCell id="EsZ2EbYMN0sOzehmeFrr-45" value="&lt;b&gt;&lt;font style=&quot;font-size: 15px;&quot;&gt;AAWallet&lt;/font&gt;&lt;/b&gt;" style="rounded=1;whiteSpace=wrap;html=1;absoluteArcSize=1;arcSize=14;strokeWidth=2;" vertex="1" parent="1">
          <mxGeometry x="540" y="617.5" width="140" height="55" as="geometry" />
        </mxCell>
        <mxCell id="EsZ2EbYMN0sOzehmeFrr-47" value="&lt;b&gt;&lt;font style=&quot;font-size: 15px;&quot;&gt;AA Platform&lt;/font&gt;&lt;/b&gt;" style="rounded=1;whiteSpace=wrap;html=1;absoluteArcSize=1;arcSize=14;strokeWidth=2;" vertex="1" parent="1">
          <mxGeometry x="170" y="615" width="175" height="60" as="geometry" />
        </mxCell>
        <mxCell id="EsZ2EbYMN0sOzehmeFrr-49" value="calls API&lt;br&gt;using UserOpSDK" style="text;html=1;align=center;verticalAlign=middle;resizable=0;points=[];autosize=1;strokeColor=none;fillColor=none;" vertex="1" parent="1">
          <mxGeometry x="380" y="600" width="120" height="40" as="geometry" />
        </mxCell>
        <mxCell id="EsZ2EbYMN0sOzehmeFrr-51" value="" style="endArrow=classic;html=1;rounded=0;jumpStyle=none;strokeColor=default;dashed=1;exitX=1;exitY=0.75;exitDx=0;exitDy=0;entryX=0;entryY=0.75;entryDx=0;entryDy=0;" edge="1" parent="1" source="EsZ2EbYMN0sOzehmeFrr-47" target="EsZ2EbYMN0sOzehmeFrr-45">
          <mxGeometry width="50" height="50" relative="1" as="geometry">
            <mxPoint x="470" y="750" as="sourcePoint" />
            <mxPoint x="520" y="700" as="targetPoint" />
          </mxGeometry>
        </mxCell>
        <mxCell id="EsZ2EbYMN0sOzehmeFrr-52" value="Builded UserOp" style="text;html=1;align=center;verticalAlign=middle;resizable=0;points=[];autosize=1;strokeColor=none;fillColor=none;" vertex="1" parent="1">
          <mxGeometry x="385" y="660" width="110" height="30" as="geometry" />
        </mxCell>
        <mxCell id="EsZ2EbYMN0sOzehmeFrr-54" value="Send UserOp" style="text;html=1;align=center;verticalAlign=middle;resizable=0;points=[];autosize=1;strokeColor=none;fillColor=none;" vertex="1" parent="1">
          <mxGeometry x="611" y="690" width="100" height="30" as="geometry" />
        </mxCell>
        <mxCell id="EsZ2EbYMN0sOzehmeFrr-58" style="edgeStyle=orthogonalEdgeStyle;rounded=0;orthogonalLoop=1;jettySize=auto;html=1;exitX=0.5;exitY=1;exitDx=0;exitDy=0;" edge="1" parent="1" source="EsZ2EbYMN0sOzehmeFrr-55" target="EsZ2EbYMN0sOzehmeFrr-56">
          <mxGeometry relative="1" as="geometry" />
        </mxCell>
        <mxCell id="EsZ2EbYMN0sOzehmeFrr-55" value="&lt;b&gt;Bundlers&lt;/b&gt;" style="rounded=1;whiteSpace=wrap;html=1;" vertex="1" parent="1">
          <mxGeometry x="550" y="740" width="120" height="60" as="geometry" />
        </mxCell>
        <mxCell id="EsZ2EbYMN0sOzehmeFrr-59" style="edgeStyle=orthogonalEdgeStyle;rounded=0;orthogonalLoop=1;jettySize=auto;html=1;exitX=0.5;exitY=1;exitDx=0;exitDy=0;entryX=0.5;entryY=0;entryDx=0;entryDy=0;" edge="1" parent="1" source="EsZ2EbYMN0sOzehmeFrr-56" target="EsZ2EbYMN0sOzehmeFrr-57">
          <mxGeometry relative="1" as="geometry" />
        </mxCell>
        <mxCell id="EsZ2EbYMN0sOzehmeFrr-56" value="&lt;b&gt;EntryPoint Contract&lt;/b&gt;" style="rounded=1;whiteSpace=wrap;html=1;" vertex="1" parent="1">
          <mxGeometry x="520" y="870" width="180" height="60" as="geometry" />
        </mxCell>
        <mxCell id="EsZ2EbYMN0sOzehmeFrr-57" value="&lt;b&gt;AudioStaking Contract&lt;/b&gt;" style="rounded=1;whiteSpace=wrap;html=1;" vertex="1" parent="1">
          <mxGeometry x="520" y="990" width="180" height="60" as="geometry" />
        </mxCell>
        <mxCell id="EsZ2EbYMN0sOzehmeFrr-60" value="Send bundle tx&#39;s" style="text;html=1;align=center;verticalAlign=middle;resizable=0;points=[];autosize=1;strokeColor=none;fillColor=none;" vertex="1" parent="1">
          <mxGeometry x="611" y="818" width="110" height="30" as="geometry" />
        </mxCell>
        <mxCell id="EsZ2EbYMN0sOzehmeFrr-66" value="click Stake" style="text;html=1;align=center;verticalAlign=middle;resizable=0;points=[];autosize=1;strokeColor=none;fillColor=none;" vertex="1" parent="1">
          <mxGeometry x="870" y="472" width="75" height="26" as="geometry" />
        </mxCell>
        <mxCell id="EsZ2EbYMN0sOzehmeFrr-69" style="edgeStyle=orthogonalEdgeStyle;rounded=0;orthogonalLoop=1;jettySize=auto;html=1;exitX=0.5;exitY=0.88;exitDx=0;exitDy=0;exitPerimeter=0;entryX=0.45;entryY=-0.009;entryDx=0;entryDy=0;entryPerimeter=0;" edge="1" parent="1" source="EsZ2EbYMN0sOzehmeFrr-22" target="EsZ2EbYMN0sOzehmeFrr-45">
          <mxGeometry relative="1" as="geometry">
            <Array as="points">
              <mxPoint x="655" y="512" />
              <mxPoint x="603" y="512" />
            </Array>
          </mxGeometry>
        </mxCell>
        <mxCell id="EsZ2EbYMN0sOzehmeFrr-70" value="click Unstake" style="text;html=1;align=center;verticalAlign=middle;resizable=0;points=[];autosize=1;strokeColor=none;fillColor=none;" vertex="1" parent="1">
          <mxGeometry x="866.25" y="516" width="89" height="26" as="geometry" />
        </mxCell>
        <mxCell id="EsZ2EbYMN0sOzehmeFrr-71" value="click Mint NFT" style="text;html=1;align=center;verticalAlign=middle;resizable=0;points=[];autosize=1;strokeColor=none;fillColor=none;" vertex="1" parent="1">
          <mxGeometry x="868.25" y="556" width="94" height="26" as="geometry" />
        </mxCell>
        <mxCell id="EsZ2EbYMN0sOzehmeFrr-75" style="edgeStyle=orthogonalEdgeStyle;rounded=0;orthogonalLoop=1;jettySize=auto;html=1;exitX=0.5;exitY=0;exitDx=0;exitDy=0;exitPerimeter=0;entryX=0.5;entryY=1;entryDx=0;entryDy=0;" edge="1" parent="1" source="EsZ2EbYMN0sOzehmeFrr-73" target="EsZ2EbYMN0sOzehmeFrr-47">
          <mxGeometry relative="1" as="geometry" />
        </mxCell>
        <mxCell id="EsZ2EbYMN0sOzehmeFrr-73" value="Developers" style="shape=umlActor;verticalLabelPosition=bottom;verticalAlign=top;html=1;" vertex="1" parent="1">
          <mxGeometry x="173" y="831" width="30" height="60" as="geometry" />
        </mxCell>
        <mxCell id="EsZ2EbYMN0sOzehmeFrr-76" style="edgeStyle=orthogonalEdgeStyle;rounded=0;orthogonalLoop=1;jettySize=auto;html=1;exitX=0.5;exitY=0;exitDx=0;exitDy=0;exitPerimeter=0;entryX=0.5;entryY=1;entryDx=0;entryDy=0;" edge="1" parent="1" source="EsZ2EbYMN0sOzehmeFrr-74" target="EsZ2EbYMN0sOzehmeFrr-47">
          <mxGeometry relative="1" as="geometry" />
        </mxCell>
        <mxCell id="EsZ2EbYMN0sOzehmeFrr-74" value="Nero operator" style="shape=umlActor;verticalLabelPosition=bottom;verticalAlign=top;html=1;" vertex="1" parent="1">
          <mxGeometry x="315" y="831" width="30" height="60" as="geometry" />
        </mxCell>
        <mxCell id="EsZ2EbYMN0sOzehmeFrr-77" value="manage the paymaster" style="text;html=1;align=center;verticalAlign=middle;resizable=0;points=[];autosize=1;strokeColor=none;fillColor=none;" vertex="1" parent="1">
          <mxGeometry x="103" y="710" width="141" height="26" as="geometry" />
        </mxCell>
        <mxCell id="EsZ2EbYMN0sOzehmeFrr-78" value="&lt;b&gt;Paymaster Contract&lt;/b&gt;" style="rounded=1;whiteSpace=wrap;html=1;" vertex="1" parent="1">
          <mxGeometry x="293" y="993" width="180" height="60" as="geometry" />
        </mxCell>
        <mxCell id="EsZ2EbYMN0sOzehmeFrr-79" value="" style="endArrow=classic;html=1;rounded=0;entryX=0.5;entryY=0;entryDx=0;entryDy=0;exitX=0.5;exitY=1;exitDx=0;exitDy=0;dashed=1;" edge="1" parent="1" source="EsZ2EbYMN0sOzehmeFrr-56" target="EsZ2EbYMN0sOzehmeFrr-78">
          <mxGeometry width="50" height="50" relative="1" as="geometry">
            <mxPoint x="383" y="963" as="sourcePoint" />
            <mxPoint x="463" y="925" as="targetPoint" />
            <Array as="points">
              <mxPoint x="610" y="957" />
              <mxPoint x="381" y="954" />
            </Array>
          </mxGeometry>
        </mxCell>
        <mxCell id="EsZ2EbYMN0sOzehmeFrr-88" value="" style="group" vertex="1" connectable="0" parent="1">
          <mxGeometry x="811" y="740" width="120" height="190" as="geometry" />
        </mxCell>
        <mxCell id="EsZ2EbYMN0sOzehmeFrr-81" value="Payment Type" style="label;whiteSpace=wrap;html=1;align=center;verticalAlign=bottom;spacingLeft=0;spacingBottom=4;imageAlign=center;imageVerticalAlign=top;image=img/clipart/Gear_128x128.png" vertex="1" parent="EsZ2EbYMN0sOzehmeFrr-88">
          <mxGeometry width="120" height="190" as="geometry" />
        </mxCell>
        <mxCell id="EsZ2EbYMN0sOzehmeFrr-82" value="Type0(Free)" style="text;html=1;align=center;verticalAlign=middle;resizable=0;points=[];autosize=1;strokeColor=none;fillColor=none;" vertex="1" parent="EsZ2EbYMN0sOzehmeFrr-88">
          <mxGeometry x="8.5" y="67" width="83" height="26" as="geometry" />
        </mxCell>
        <mxCell id="EsZ2EbYMN0sOzehmeFrr-83" value="Type1(Prepay)" style="text;html=1;align=center;verticalAlign=middle;resizable=0;points=[];autosize=1;strokeColor=none;fillColor=none;" vertex="1" parent="EsZ2EbYMN0sOzehmeFrr-88">
          <mxGeometry x="8.5" y="93" width="97" height="26" as="geometry" />
        </mxCell>
        <mxCell id="EsZ2EbYMN0sOzehmeFrr-84" value="Type2(PostPay)" style="text;html=1;align=center;verticalAlign=middle;resizable=0;points=[];autosize=1;strokeColor=none;fillColor=none;" vertex="1" parent="EsZ2EbYMN0sOzehmeFrr-88">
          <mxGeometry x="8.5" y="121" width="103" height="26" as="geometry" />
        </mxCell>
      </root>
    </mxGraphModel>
  </diagram>
</mxfile>
